<?xml version="1.0" encoding="UTF-8" standalone="no"?>
<!DOCTYPE svg PUBLIC "-//W3C//DTD SVG 1.1//EN"
 "http://www.w3.org/Graphics/SVG/1.1/DTD/svg11.dtd">
<!-- Generated by graphviz version 11.0.0 (20240428.1522)
 -->
<!-- Pages: 1 -->
<svg width="864pt" height="58pt"
 viewBox="0.00 0.00 864.00 58.08" xmlns="http://www.w3.org/2000/svg" xmlns:xlink="http://www.w3.org/1999/xlink">
<g id="graph0" class="graph" transform="scale(1.32009 1.32009) rotate(0) translate(4 40)">
<polygon fill="white" stroke="none" points="-4,4 -4,-40 650.5,-40 650.5,4 -4,4"/>
<!-- 1710236412950337754 -->
<g id="node1" class="node">
<title>1710236412950337754</title>
<polygon fill="none" stroke="black" points="646.5,-36 489.5,-36 489.5,0 646.5,0 646.5,-36"/>
<text text-anchor="middle" x="568" y="-11" font-family="Helvetica,sans-Serif" font-size="20.00">Max(Projection)</text>
</g>
<!-- &#45;7693747509098144142 -->
<g id="node2" class="node">
<title>&#45;7693747509098144142</title>
<polygon fill="none" stroke="black" points="453.5,-36 142,-36 142,0 453.5,0 453.5,-36"/>
<text text-anchor="middle" x="297.75" y="-11" font-family="Helvetica,sans-Serif" font-size="20.00">Projection(ReadCSV, DepDelay)</text>
</g>
<!-- &#45;7693747509098144142&#45;&gt;1710236412950337754 -->
<g id="edge1" class="edge">
<title>&#45;7693747509098144142&#45;&gt;1710236412950337754</title>
<path fill="none" stroke="black" d="M453.63,-18C461.82,-18 469.91,-18 477.77,-18"/>
<polygon fill="black" stroke="black" points="477.58,-21.5 487.58,-18 477.58,-14.5 477.58,-21.5"/>
</g>
<!-- &#45;7024711111781515565 -->
<g id="node3" class="node">
<title>&#45;7024711111781515565</title>
<polygon fill="none" stroke="black" points="106,-36 0,-36 0,0 106,0 106,-36"/>
<text text-anchor="middle" x="53" y="-11" font-family="Helvetica,sans-Serif" font-size="20.00">ReadCSV</text>
</g>
<!-- &#45;7024711111781515565&#45;&gt;&#45;7693747509098144142 -->
<g id="edge2" class="edge">
<title>&#45;7024711111781515565&#45;&gt;&#45;7693747509098144142</title>
<path fill="none" stroke="black" d="M106.37,-18C113.93,-18 122.03,-18 130.46,-18"/>
<polygon fill="black" stroke="black" points="130.2,-21.5 140.2,-18 130.2,-14.5 130.2,-21.5"/>
</g>
</g>
</svg>
